<?xml version="1.0" encoding="UTF-8"?><svg id="a" xmlns="http://www.w3.org/2000/svg" viewBox="0 0 3052 4059"><defs><style>.b{fill:#fff;}</style></defs><path class="b" d="M0,3437.15V0c1017.33,0,2034.67,0,3052,0,0,693.83,0,1387.66,0,2081.49-.37-3.27-1-6.54-1.08-9.82-.84-31.95-1.2-63.92-2.48-95.85-1.59-39.55-3.48-79.11-6.04-118.61-2.85-43.81-6.1-87.6-10.1-131.32-4.03-44.05-8.86-88.05-13.94-131.99-8.68-75.04-20.32-149.65-34.12-223.93-15.64-84.14-34.04-167.65-57.59-249.94-40.34-140.95-89.17-278.95-146.77-413.79-42.08-98.52-91.27-193.3-152.17-281.7-58.98-85.6-127.73-162.08-210.26-225.82-77.25-59.66-163.1-102.84-255.04-134.58-75.47-26.05-152.91-43.74-232.07-53.75-54.59-6.91-109.43-9.47-164.49-9-46.71,.4-93.21,3.24-139.51,9.07-82.84,10.42-163.81,29.05-242.71,56.53-153.4,53.43-288.2,136.95-404.6,250.13-67.67,65.8-126.21,139.06-176.79,218.7-68.07,107.18-119.71,221.93-157.93,342.86-30.07,95.13-50.88,192.31-63.82,291.18-8.6,65.7-12.48,131.81-16,197.93-1.73,32.56-2.89,65.16-4,97.75-.92,26.94-1.59,53.9-2.01,80.86-.81,51.61-1.47,103.23-2.02,154.84-.76,71.27-1.25,142.55-2.07,213.82-.39,33.62-1.06,67.25-2.01,100.86-1.07,37.92-2.17,75.85-4.06,113.74-2.17,43.53-4.64,87.05-8.05,130.5-3.25,41.45-7.42,82.84-12.01,124.16-8.18,73.81-20.35,146.98-36.25,219.53-28.36,129.34-69.68,254.16-130.34,372.17-36.49,70.99-78.52,138.49-128.88,200.57-61.96,76.38-128.82,148.38-196.78,219.39-12.6,13.16-27.11,24.73-36,41.16Z"/><path d="M0,3437.15c8.89-16.43,23.4-28,36-41.16,67.96-71.02,134.83-143.02,196.78-219.39,50.35-62.07,92.38-129.58,128.88-200.57,60.67-118.01,101.99-242.83,130.34-372.17,15.91-72.55,28.07-145.73,36.25-219.53,4.58-41.33,8.75-82.72,12.01-124.16,3.41-43.44,5.88-86.97,8.05-130.5,1.89-37.89,2.98-75.82,4.06-113.74,.95-33.61,1.62-67.24,2.01-100.86,.82-71.27,1.31-142.55,2.07-213.82,.55-51.62,1.21-103.23,2.02-154.84,.43-26.96,1.1-53.91,2.01-80.86,1.11-32.59,2.26-65.19,4-97.75,3.52-66.12,7.41-132.23,16-197.93,12.94-98.87,33.75-196.05,63.82-291.18,38.23-120.93,89.87-235.68,157.93-342.86,50.58-79.64,109.12-152.9,176.79-218.7,116.4-113.18,251.2-196.7,404.6-250.13,78.9-27.48,159.87-46.11,242.71-56.53,46.3-5.83,92.8-8.67,139.51-9.07,55.06-.48,109.89,2.09,164.49,9,79.17,10.01,156.6,27.7,232.07,53.75,91.94,31.74,177.79,74.92,255.04,134.58,82.53,63.74,151.28,140.22,210.26,225.82,60.9,88.39,110.09,183.18,152.17,281.7,57.59,134.83,106.43,272.83,146.77,413.79,23.55,82.29,41.96,165.8,57.59,249.94,13.8,74.28,25.44,148.88,34.12,223.93,5.08,43.95,9.91,87.94,13.94,131.99,4,43.72,7.25,87.51,10.1,131.32,2.57,39.5,4.46,79.06,6.04,118.61,1.28,31.93,1.64,63.9,2.48,95.85,.09,3.28,.71,6.54,1.08,9.82v249.94c-.37,2.94-1,5.87-1.08,8.82-1.59,54.56-3.02,109.12-4.69,163.67-.62,20.29-1.47,40.57-2.74,60.83-2.86,45.46-5.97,90.91-9.16,136.36-2.11,30.2-4.21,60.4-6.88,90.56-3.63,41.09-7.64,82.14-11.77,123.18-3.16,31.44-6.48,62.87-10.22,94.24-4.96,41.61-10.57,83.14-15.58,124.74-3.46,28.72-6.16,57.54-9.59,86.26-8.16,68.39-19.12,136.34-31.86,204.03-19.59,104.08-44.07,206.96-74.43,308.43-30.85,103.12-67.79,203.95-113.14,301.66-5.15,11.1-11.43,20.03-22.87,24.8h-8c-4.78-2.95-9.95-5.42-14.27-8.93-77.82-63.3-164.1-111.34-259.44-142.61-71.56-23.47-144.9-34.63-220.41-29.14-54.28,3.95-106.57,16.18-156.64,37.46-45.03,19.13-89.44,39.76-134.79,58.1-92.43,37.38-187.36,65.04-287.83,69.78-44.82,2.12-89.18-1.08-133.17-9.62-69.76-13.55-133.24-42.05-191.08-82.78-34.3-24.15-67.38-50.06-100.71-75.56-38.39-29.37-77.42-57.67-119.64-81.49-78.39-44.23-161.3-59.27-249.5-39.24-38.27,8.69-76.15,19.15-114.12,29.17-39.62,10.46-79.34,20.23-120.07,25.44-36.45,4.66-72.92,5.96-109.64,3.79-48.77-2.88-96.56-10.56-143.13-25.54-74.21-23.87-137.06-66.06-192.31-120.1-69.08-67.57-127.93-143.64-183.26-222.57v-8Zm2724.89,555.46c4.55-10.28,8.93-19.94,13.12-29.67,60.51-140.5,104.18-286.33,138.06-435.27,14.47-63.63,27.31-127.6,37.32-192.07,8.32-53.61,15.36-107.43,22.2-161.25,6.84-53.83,12.81-107.78,18.98-161.69,4.55-39.69,9.13-79.39,13.13-119.14,4-39.75,7.56-79.55,10.83-119.37,3.98-48.45,8.06-96.9,11-145.41,3.55-58.82,6.64-117.68,8.67-176.57,2.5-72.54,4.31-145.12,5.27-217.69,.65-48.95-.47-97.93-1.2-146.89-.51-33.62-.94-67.28-2.77-100.85-3.91-71.8-7.89-143.62-13.39-215.31-4.33-56.42-9.92-112.79-16.86-168.94-7.1-57.46-15.89-114.73-25.08-171.91-13.69-85.15-31.94-169.38-53.48-252.91-28.38-110.06-65.65-217.24-105.18-323.65-37.26-100.28-79.41-198.43-131.53-292.04-53.75-96.54-116.91-186.07-196.81-263.07-37.77-36.4-78.55-69.01-122.57-97.57-65.83-42.72-137.04-73.77-211.56-97.59-116.45-37.21-235.87-54.24-358.08-52.66-48.37,.62-96.46,4.06-144.39,10.53-75.14,10.14-148.54,27.47-220.13,52.4-166.62,58.03-309.19,152.6-428.57,282.29-89.24,96.94-159.28,206.53-214.06,326.08-70.54,153.95-112.7,315.7-131.17,483.68-5.85,53.25-9.23,106.82-12.01,160.33-3.11,59.84-4.68,119.76-6.14,179.67-1.28,52.61-1.58,105.24-2.1,157.86-.58,57.96-.78,115.92-1.4,173.88-.42,39.3-.97,78.6-2.03,117.88-1.2,44.59-2.88,89.17-4.62,133.75-3.13,79.88-9.09,159.55-17.92,239.01-7.39,66.54-17.13,132.7-29.87,198.43-21.45,110.75-51.71,218.9-94.51,323.4-44.79,109.37-101.56,212.03-174.51,305.21-58.16,74.3-122.37,143.4-187.28,211.8-11.43,12.05-22.94,24.02-34.54,36.16,2.36,3.29,4.2,6.03,6.21,8.65,17.06,22.19,33.9,44.54,51.28,66.48,37.29,47.05,76.35,92.51,121.46,132.4,41.55,36.74,87.54,66.27,139.97,85.18,38.13,13.75,77.57,21.16,117.8,25.5,58.54,6.32,116.52,3.22,173.74-10.01,41.16-9.51,81.91-20.79,122.76-31.6,39.32-10.41,78.85-19.67,119.54-22.58,63.72-4.56,124.64,6.68,182.92,32.84,51.07,22.93,97.49,53.35,141.95,86.98,36.4,27.53,72.22,55.85,108.98,82.89,41.25,30.34,85.66,55.07,134.59,71.11,76.6,25.11,154.74,28.52,233.96,16.79,53.87-7.98,106.08-22.38,157.44-40.28,58.86-20.52,115.8-45.61,172.43-71.46,64.71-29.53,132.71-45.59,203.69-48.75,53.2-2.37,105.77,3.15,157.73,14.65,94.08,20.83,180.53,59.64,261.41,111.38,19.05,12.18,37.42,25.42,57.34,39.01Z"/><path class="b" d="M0,3445.15c55.33,78.93,114.18,155,183.26,222.57,55.25,54.05,118.1,96.23,192.31,120.1,46.57,14.98,94.36,22.66,143.13,25.54,36.72,2.17,73.19,.86,109.64-3.79,40.74-5.2,80.46-14.98,120.07-25.44,37.96-10.02,75.84-20.48,114.12-29.17,88.21-20.03,171.12-4.99,249.5,39.24,42.22,23.82,81.25,52.12,119.64,81.49,33.33,25.5,66.42,51.4,100.71,75.56,57.84,40.73,121.32,69.23,191.08,82.78,43.99,8.54,88.35,11.74,133.17,9.62,100.47-4.74,195.39-32.4,287.83-69.78,45.34-18.34,89.76-38.97,134.79-58.1,50.06-21.27,102.35-33.51,156.64-37.46,75.5-5.49,148.85,5.68,220.41,29.14,95.35,31.27,181.62,79.3,259.44,142.61,4.32,3.51,9.49,5.98,14.27,8.93H0v-613.85Z"/><path class="b" d="M2738,4059c11.43-4.77,17.72-13.7,22.87-24.8,45.35-97.71,82.29-198.54,113.14-301.66,30.35-101.47,54.83-204.35,74.43-308.43,12.74-67.69,23.7-135.64,31.86-204.03,3.43-28.73,6.13-57.54,9.59-86.26,5.01-41.6,10.62-83.13,15.58-124.74,3.74-31.37,7.06-62.8,10.22-94.24,4.13-41.04,8.14-82.09,11.77-123.18,2.66-30.15,4.76-60.36,6.88-90.56,3.18-45.44,6.29-90.89,9.16-136.36,1.28-20.25,2.12-40.54,2.74-60.83,1.67-54.55,3.11-109.11,4.69-163.67,.09-2.95,.71-5.88,1.08-8.82v1727.57h-314Z"/><path class="b" d="M2724.89,3992.61c-19.92-13.59-38.29-26.83-57.34-39.01-80.88-51.73-167.33-90.55-261.41-111.38-51.96-11.5-104.53-17.02-157.73-14.65-70.98,3.16-138.98,19.21-203.69,48.75-56.64,25.85-113.57,50.94-172.43,71.46-51.35,17.9-103.57,32.3-157.44,40.28-79.22,11.74-157.36,8.33-233.96-16.79-48.93-16.04-93.34-40.77-134.59-71.11-36.76-27.04-72.58-55.36-108.98-82.89-44.46-33.63-90.89-64.05-141.95-86.98-58.28-26.17-119.2-37.4-182.92-32.84-40.69,2.91-80.22,12.17-119.54,22.58-40.85,10.81-81.6,22.09-122.76,31.6-57.22,13.23-115.2,16.33-173.74,10.01-40.24-4.34-79.67-11.75-117.8-25.5-52.44-18.91-98.42-48.44-139.97-85.18-45.1-39.88-84.17-85.35-121.46-132.4-17.38-21.93-34.22-44.29-51.28-66.48-2.01-2.61-3.85-5.35-6.21-8.65,11.6-12.14,23.11-24.11,34.54-36.16,64.92-68.4,129.12-137.5,187.28-211.8,72.94-93.18,129.71-195.84,174.51-305.21,42.8-104.49,73.06-212.65,94.51-323.4,12.73-65.74,22.47-131.9,29.87-198.43,8.83-79.46,14.79-159.13,17.92-239.01,1.75-44.57,3.42-89.16,4.62-133.75,1.06-39.28,1.61-78.58,2.03-117.88,.62-57.96,.82-115.92,1.4-173.88,.52-52.62,.82-105.25,2.1-157.86,1.45-59.91,3.02-119.83,6.14-179.67,2.78-53.51,6.16-107.09,12.01-160.33,18.47-167.97,60.64-329.73,131.17-483.68,54.78-119.55,124.82-229.14,214.06-326.08,119.38-129.69,261.96-224.25,428.57-282.29,71.59-24.94,144.99-42.27,220.13-52.4,47.93-6.47,96.03-9.9,144.39-10.53,122.2-1.58,241.63,15.45,358.08,52.66,74.52,23.81,145.74,54.87,211.56,97.59,44.02,28.57,84.8,61.17,122.57,97.57,79.9,77,143.07,166.53,196.81,263.07,52.12,93.61,94.27,191.76,131.53,292.04,39.53,106.42,76.8,213.59,105.18,323.65,21.54,83.53,39.79,167.75,53.48,252.91,9.19,57.17,17.98,114.45,25.08,171.91,6.94,56.15,12.54,112.52,16.86,168.94,5.5,71.69,9.48,143.51,13.39,215.31,1.83,33.57,2.26,67.22,2.77,100.85,.74,48.96,1.85,97.94,1.2,146.89-.96,72.58-2.77,145.15-5.27,217.69-2.03,58.89-5.12,117.75-8.67,176.57-2.93,48.51-7.02,96.97-11,145.41-3.27,39.82-6.83,79.62-10.83,119.37-4,39.75-8.58,79.45-13.13,119.14-6.18,53.92-12.15,107.86-18.98,161.69-6.84,53.82-13.88,107.64-22.2,161.25-10,64.47-22.84,128.44-37.32,192.07-33.88,148.94-77.55,294.78-138.06,435.27-4.19,9.74-8.57,19.4-13.12,29.67Zm-449.72-2887.69c-101.4,.07-182.84,81.6-182.83,183.05,0,100.8,81.5,181.58,182.51,182.24,98.08,.64,183.7-79.92,182.95-184.93-.7-98.74-82.85-180.43-182.63-180.35Zm-1134.17,191.15c.1,100.75,81.65,181.95,182.75,181.98,101.36,.03,182.97-81.8,182.58-183.09-.39-101.02-81.8-182.14-182.69-182.05-101.43,.09-182.74,81.64-182.64,183.17Zm693.75,472.1c8.82-.77,19.17-1.15,29.35-2.67,41.27-6.15,75.69-24.7,101.52-57.86,30.21-38.79,41.77-84.26,45.51-132.12,1.29-16.45-12.06-30.04-28.55-31.61-15.34-1.46-29.58,9.07-32.93,24.58-.84,3.89-1.12,7.9-1.6,11.87-2.75,22.94-7.83,45.26-17.91,66.2-14.27,29.66-36.43,49.71-69.46,56.1-16.14,3.12-32.42,3.84-48.69,.9-47.96-8.66-81.06-35.13-97.13-81.65-4.84-14.03-5.27-28.67-5.31-43.41-.05-18.59-13.61-32.23-31.17-32.33-17.07-.1-30.56,13.09-31.29,31.19-1.45,35.79,5.8,69.71,24.5,100.43,36.77,60.4,92.16,87.96,163.16,90.39Z"/><path d="M2275.17,1104.92c99.79-.07,181.93,81.62,182.63,180.35,.75,105.01-84.87,185.57-182.95,184.93-101.01-.66-182.5-81.44-182.51-182.24,0-101.44,81.42-182.97,182.83-183.05Z"/><path d="M1141,1296.08c-.1-101.52,81.21-183.08,182.64-183.17,100.89-.09,182.3,81.04,182.69,182.05,.39,101.29-81.22,183.12-182.58,183.09-101.1-.03-182.65-81.23-182.75-181.98Z"/><path d="M1834.75,1768.18c-71.01-2.44-126.4-30-163.16-90.39-18.7-30.72-25.95-64.65-24.5-100.43,.73-18.1,14.22-31.29,31.29-31.19,17.56,.1,31.12,13.74,31.17,32.33,.04,14.74,.47,29.38,5.31,43.41,16.06,46.53,49.17,72.99,97.13,81.65,16.27,2.94,32.55,2.22,48.69-.9,33.03-6.39,55.2-26.44,69.46-56.1,10.07-20.94,15.15-43.26,17.91-66.2,.48-3.96,.76-7.98,1.6-11.87,3.36-15.5,17.59-26.04,32.93-24.58,16.49,1.57,29.84,15.16,28.55,31.61-3.74,47.86-15.3,93.33-45.51,132.12-25.83,33.16-60.25,51.72-101.52,57.86-10.18,1.52-20.53,1.89-29.35,2.67Z"/></svg>