<?xml version="1.0" standalone="no"?>
<!DOCTYPE svg PUBLIC "-//W3C//DTD SVG 20010904//EN"
 "http://www.w3.org/TR/2001/REC-SVG-20010904/DTD/svg10.dtd">
<svg version="1.0" xmlns="http://www.w3.org/2000/svg"
 width="4229.000000pt" height="4229.000000pt" viewBox="0 0 4229.000000 4229.000000"
 preserveAspectRatio="xMidYMid meet">
<metadata>
Created by potrace 1.14, written by Peter Selinger 2001-2017
</metadata>
<g transform="translate(0.000000,4229.000000) scale(0.100000,-0.100000)"
fill="#000000" stroke="none">
<path d="M23348 42275 c-2 -2 -78 -6 -170 -10 -93 -3 -194 -8 -225 -10 -162
-11 -222 -16 -263 -20 -25 -3 -76 -7 -115 -10 -38 -3 -79 -7 -90 -9 -11 -2
-56 -7 -100 -10 -44 -4 -91 -9 -105 -11 -14 -2 -63 -9 -110 -15 -47 -6 -102
-13 -122 -16 -21 -3 -51 -7 -68 -9 -17 -2 -43 -6 -58 -9 -15 -3 -47 -8 -72
-11 -25 -3 -56 -7 -70 -9 -14 -3 -41 -7 -60 -10 -19 -3 -46 -8 -60 -10 -37 -7
-141 -25 -175 -31 -26 -5 -265 -51 -305 -60 -129 -27 -181 -38 -267 -59 -56
-14 -112 -27 -125 -30 -30 -6 -289 -73 -353 -91 -27 -8 -84 -24 -125 -36 -41
-13 -81 -24 -88 -25 -18 -3 -212 -63 -242 -75 -14 -5 -34 -11 -45 -14 -27 -6
-167 -52 -230 -76 -27 -10 -124 -45 -215 -78 -401 -143 -791 -312 -1210 -523
-312 -157 -394 -201 -398 -210 -2 -5 -7 -8 -12 -8 -17 0 -505 -288 -608 -359
-15 -10 -79 -52 -142 -94 -195 -128 -583 -406 -685 -489 -5 -5 -64 -52 -130
-104 -66 -53 -131 -106 -145 -117 -14 -12 -50 -42 -80 -67 -30 -24 -62 -51
-71 -60 -9 -8 -29 -26 -45 -40 -376 -322 -816 -758 -1165 -1154 -19 -21 -39
-44 -44 -50 -6 -6 -46 -54 -90 -106 -44 -52 -82 -97 -85 -100 -13 -12 -254
-315 -326 -410 -69 -91 -226 -305 -317 -435 -174 -245 -460 -693 -607 -950
-160 -279 -191 -334 -309 -558 -62 -117 -189 -370 -259 -517 -108 -227 -133
-283 -232 -515 -56 -132 -111 -259 -121 -282 -10 -24 -19 -46 -19 -50 -1 -5
-9 -26 -20 -48 -11 -22 -19 -44 -20 -48 0 -5 -25 -72 -56 -150 -127 -322 -321
-894 -437 -1292 -33 -113 -164 -597 -172 -633 -3 -15 -51 -215 -61 -252 -4
-18 -34 -147 -40 -175 -8 -42 -13 -63 -33 -150 -11 -49 -22 -101 -24 -115 -3
-14 -8 -36 -11 -50 -6 -27 -14 -69 -21 -110 -2 -14 -13 -70 -24 -125 -11 -55
-23 -116 -26 -135 -3 -19 -12 -69 -20 -110 -8 -41 -16 -91 -19 -110 -3 -19 -7
-44 -10 -55 -2 -11 -7 -42 -10 -68 -4 -27 -9 -58 -12 -70 -2 -12 -6 -39 -9
-62 -10 -69 -16 -107 -21 -129 -2 -11 -7 -39 -9 -61 -7 -53 -15 -114 -20 -145
-11 -73 -19 -135 -30 -230 -2 -19 -6 -55 -9 -80 -12 -86 -15 -115 -21 -175 -6
-62 -11 -112 -20 -201 -3 -28 -7 -75 -10 -105 -2 -30 -7 -83 -10 -119 -11
-113 -14 -153 -20 -235 -3 -44 -7 -105 -10 -135 -2 -30 -7 -95 -10 -145 -3
-49 -7 -124 -10 -165 -3 -41 -7 -115 -10 -165 -3 -49 -7 -124 -10 -165 -3 -41
-8 -129 -10 -195 -3 -66 -8 -154 -10 -195 -3 -41 -7 -129 -10 -195 -45 -1072
-54 -1606 -80 -4385 -9 -1021 -19 -1718 -30 -2040 -3 -91 -8 -241 -10 -335 -7
-249 -14 -448 -30 -802 -8 -184 -15 -327 -20 -388 -2 -33 -7 -114 -10 -180 -4
-66 -8 -145 -10 -175 -2 -30 -7 -104 -10 -163 -3 -59 -8 -124 -10 -145 -2 -20
-6 -86 -10 -147 -4 -60 -8 -126 -10 -145 -4 -37 -15 -178 -20 -245 -5 -69 -16
-199 -20 -230 -2 -16 -7 -66 -10 -110 -4 -44 -8 -87 -10 -95 -2 -8 -7 -51 -10
-95 -4 -44 -8 -93 -10 -110 -4 -39 -15 -148 -21 -205 -5 -51 -13 -120 -18
-165 -2 -16 -7 -66 -12 -110 -4 -44 -8 -82 -9 -85 -1 -3 -5 -39 -9 -80 -5 -41
-10 -82 -11 -90 -2 -8 -6 -44 -10 -80 -4 -36 -8 -72 -10 -80 -2 -9 -6 -43 -10
-75 -4 -33 -9 -69 -11 -80 -3 -11 -7 -40 -9 -65 -3 -25 -8 -56 -10 -70 -3 -14
-7 -43 -10 -65 -3 -22 -8 -51 -10 -65 -3 -14 -7 -47 -11 -75 -3 -27 -7 -52 -9
-55 -2 -3 -6 -30 -10 -60 -3 -30 -13 -91 -20 -135 -8 -44 -17 -95 -20 -112 -3
-18 -7 -48 -10 -65 -6 -37 -42 -229 -50 -268 -3 -14 -8 -41 -10 -60 -3 -19 -8
-46 -11 -60 -3 -14 -8 -36 -11 -50 -10 -59 -84 -414 -108 -520 -14 -63 -28
-126 -31 -140 -32 -154 -151 -630 -210 -840 -20 -69 -42 -147 -49 -175 -44
-162 -189 -619 -283 -890 -62 -175 -219 -595 -246 -656 -9 -19 -45 -106 -82
-194 -239 -576 -565 -1224 -879 -1747 -5 -9 -25 -43 -44 -75 -161 -273 -445
-691 -675 -993 -100 -132 -422 -532 -487 -605 -23 -25 -81 -93 -193 -225 -35
-41 -185 -214 -221 -254 -5 -6 -44 -49 -85 -96 -41 -47 -77 -87 -80 -90 -3 -3
-48 -52 -100 -110 -51 -58 -137 -152 -190 -210 -54 -58 -119 -129 -146 -159
-57 -62 -83 -90 -253 -271 -345 -367 -447 -474 -602 -629 -199 -198 -269 -293
-269 -363 0 -38 11 -58 89 -168 156 -219 172 -241 331 -455 133 -179 205 -273
378 -495 60 -77 333 -406 367 -444 6 -6 39 -44 73 -84 34 -40 75 -87 91 -105
16 -18 39 -43 51 -57 125 -145 605 -632 741 -751 302 -266 664 -529 914 -665
11 -6 45 -24 75 -41 171 -95 391 -197 579 -267 283 -106 445 -153 806 -232 19
-4 229 -40 288 -50 15 -2 39 -6 55 -9 15 -2 50 -7 78 -10 28 -3 59 -7 70 -9
10 -2 57 -7 104 -11 47 -4 92 -9 101 -10 137 -26 1000 -26 1141 0 9 2 49 6 90
10 40 3 84 8 98 10 14 2 45 7 69 10 23 3 55 7 70 10 14 2 71 11 126 20 55 9
132 22 170 30 39 8 81 16 95 19 38 7 142 31 270 61 63 15 122 28 130 30 8 2
87 22 175 45 88 23 167 43 175 45 8 2 42 11 75 20 148 40 362 96 385 101 14 2
36 9 50 14 50 18 550 141 730 179 129 28 177 36 265 47 22 3 51 7 65 9 109 19
517 26 680 13 196 -17 399 -51 560 -93 36 -9 72 -19 80 -20 8 -2 15 -4 15 -5
0 -1 7 -3 15 -5 146 -29 663 -244 823 -342 20 -13 66 -39 102 -58 97 -53 376
-230 569 -363 135 -92 688 -501 748 -551 7 -7 47 -37 88 -68 41 -32 77 -60 80
-63 10 -11 447 -338 590 -441 202 -146 259 -185 386 -265 151 -95 143 -89 204
-125 105 -61 126 -72 280 -149 144 -72 177 -88 263 -124 17 -7 48 -21 67 -29
66 -29 254 -100 270 -102 3 0 19 -5 35 -12 56 -21 283 -89 360 -109 63 -15
324 -72 360 -77 17 -3 73 -12 125 -20 52 -9 115 -18 140 -21 25 -3 54 -8 65
-10 11 -2 58 -7 105 -11 47 -4 99 -8 115 -10 192 -24 746 -24 985 0 25 2 74 7
110 10 36 3 81 8 100 10 19 3 58 7 85 10 28 3 61 7 75 10 14 2 45 7 70 10 40
4 293 46 363 60 15 3 37 7 50 9 12 2 33 7 47 10 14 3 36 8 50 10 21 4 176 38
233 52 9 2 25 6 35 8 333 78 1083 317 1337 427 11 4 79 31 150 59 117 46 157
62 220 90 11 5 49 21 85 36 36 14 84 35 107 45 23 10 44 19 47 19 3 0 33 13
68 29 35 16 133 59 218 96 85 37 178 78 205 90 28 13 167 73 310 135 143 61
274 117 290 124 17 8 46 20 65 26 19 7 49 19 65 26 148 62 636 200 775 219 14
2 36 6 50 9 27 6 64 13 120 22 19 3 42 7 50 9 8 2 41 7 73 10 32 4 67 8 78 10
19 4 84 11 184 21 203 19 630 25 840 10 172 -12 186 -13 251 -21 32 -4 75 -9
94 -11 31 -3 98 -12 140 -20 19 -4 98 -15 130 -19 93 -12 506 -105 605 -135
17 -6 64 -19 105 -30 41 -12 82 -24 90 -27 8 -3 20 -7 27 -9 60 -12 435 -147
633 -226 234 -95 316 -132 580 -262 169 -83 292 -148 355 -186 17 -10 61 -35
99 -55 39 -21 84 -48 102 -59 18 -12 52 -33 76 -47 140 -85 353 -225 481 -318
82 -58 158 -113 171 -121 32 -22 136 -102 246 -190 189 -151 258 -176 344
-126 107 63 156 140 316 501 34 77 70 158 80 180 260 582 637 1596 855 2300
25 83 50 161 55 175 13 37 154 515 189 640 5 19 19 69 31 110 12 41 23 82 25
90 2 8 29 110 61 225 31 116 57 215 58 220 2 6 8 28 14 50 6 22 13 51 16 65 2
14 14 61 26 105 12 44 23 87 25 95 2 8 22 94 45 190 24 96 48 200 55 230 7 30
23 98 35 150 12 52 24 106 26 119 3 12 11 52 20 87 24 103 116 539 128 604 2
14 7 36 10 50 3 14 8 37 10 53 3 15 7 35 10 45 3 9 7 34 11 56 3 21 7 41 9 45
2 3 7 28 10 55 4 27 9 53 11 56 3 4 7 22 9 41 9 56 16 99 36 199 10 52 21 113
25 135 3 22 7 47 10 55 2 8 6 33 10 55 5 36 11 75 21 130 2 11 17 97 33 190
26 150 34 193 47 280 1 11 5 38 9 60 6 41 12 74 19 123 3 15 10 63 16 107 7
44 14 87 15 96 2 9 6 38 9 65 11 83 14 108 19 139 3 17 8 50 11 75 3 25 8 54
10 65 2 11 7 51 11 90 4 38 8 72 10 75 1 3 6 34 10 70 3 36 8 76 10 90 6 51
15 126 20 170 3 25 7 61 10 80 3 19 7 60 10 90 5 55 9 94 21 200 3 30 7 71 9
90 4 44 15 146 20 185 2 17 7 53 10 80 4 28 8 61 10 75 2 14 7 57 11 95 3 39
8 79 10 90 2 11 11 76 19 145 8 69 17 143 20 165 3 22 8 58 11 80 3 22 7 56 9
75 2 19 6 55 9 80 4 25 9 63 11 85 3 22 8 51 10 65 3 14 7 50 10 80 3 30 7 71
10 90 3 19 8 58 11 85 6 60 10 93 18 142 3 21 8 67 11 103 4 36 8 76 10 90 6
45 20 163 30 260 3 30 7 71 10 90 5 39 11 101 21 205 3 39 8 77 9 86 2 8 6 55
10 105 4 49 9 91 10 94 2 3 6 43 9 90 4 47 9 96 11 110 2 14 7 59 11 100 4 41
8 86 9 100 1 14 5 59 9 100 4 41 9 91 11 110 2 19 7 64 10 100 5 64 9 106 19
205 3 28 8 79 11 115 8 89 13 143 20 220 4 36 8 90 10 120 2 30 6 82 9 115 3
33 8 94 11 135 3 41 7 100 10 130 4 52 10 131 20 280 3 36 7 94 9 130 10 128
17 236 21 290 9 143 16 250 21 305 2 33 7 98 9 145 6 87 11 162 20 285 2 39 7
111 10 160 3 50 8 117 10 150 4 59 10 159 20 345 8 162 23 585 30 880 9 343
21 763 33 1080 9 269 9 2845 -1 3205 -20 774 -20 762 -52 1430 -7 134 -15 273
-19 335 -3 30 -7 111 -11 179 -3 68 -8 138 -10 155 -3 17 -7 76 -10 131 -3 55
-7 125 -10 155 -4 53 -8 107 -20 285 -7 94 -12 159 -20 235 -2 30 -7 89 -9
130 -3 41 -8 95 -10 120 -3 25 -8 77 -11 115 -4 39 -8 90 -10 115 -3 25 -7 75
-10 111 -3 37 -7 82 -10 100 -4 37 -12 117 -21 207 -3 31 -7 73 -9 92 -3 19
-7 60 -10 90 -3 30 -7 75 -10 100 -3 25 -7 63 -10 85 -5 46 -13 118 -21 190
-3 28 -7 66 -9 85 -3 19 -7 58 -10 85 -3 28 -7 66 -10 85 -2 19 -7 60 -10 90
-3 30 -8 69 -10 85 -2 17 -7 57 -10 90 -3 33 -8 71 -10 85 -3 14 -7 48 -10 75
-3 28 -8 64 -10 80 -2 17 -7 53 -10 80 -4 28 -10 77 -15 110 -5 33 -12 80 -15
105 -3 25 -7 56 -10 70 -8 54 -15 107 -20 145 -3 22 -6 49 -9 60 -2 11 -6 41
-10 66 -4 25 -9 57 -11 70 -2 13 -6 44 -9 69 -3 25 -8 54 -10 65 -2 11 -7 42
-10 69 -4 27 -9 52 -11 55 -1 3 -6 30 -10 60 -4 30 -9 63 -11 75 -2 12 -7 37
-10 56 -2 19 -7 46 -9 60 -3 14 -8 42 -11 64 -3 21 -8 48 -10 60 -4 20 -7 39
-19 111 -3 17 -14 82 -25 145 -11 63 -22 129 -25 145 -3 17 -8 41 -10 55 -3
14 -8 39 -11 55 -2 17 -18 100 -34 185 -16 85 -31 166 -34 180 -2 14 -7 36
-10 50 -6 25 -11 50 -22 105 -25 132 -77 387 -84 415 -5 19 -12 51 -15 70 -3
19 -12 63 -20 96 -8 34 -16 73 -19 85 -2 13 -9 44 -15 69 -40 174 -50 218 -54
240 -3 14 -10 43 -15 65 -6 22 -13 51 -16 65 -4 23 -117 475 -152 610 -8 30
-16 63 -19 74 -2 10 -11 42 -19 70 -13 44 -53 192 -60 221 -2 6 -6 17 -9 25
-3 8 -20 67 -37 130 -18 63 -38 135 -46 160 -7 25 -50 167 -94 315 -178 597
-441 1386 -667 2000 -181 492 -461 1208 -608 1550 -7 17 -32 75 -55 130 -23
55 -45 109 -50 120 -5 11 -45 101 -89 200 -43 99 -107 241 -141 315 -34 74
-75 163 -91 197 -38 84 -292 591 -328 656 -15 29 -56 106 -91 172 -34 66 -66
125 -70 130 -4 6 -40 69 -80 140 -39 72 -127 221 -193 333 -67 111 -127 210
-132 220 -81 137 -426 648 -573 847 -170 232 -377 493 -517 655 -22 25 -62 72
-90 104 -27 32 -61 71 -75 86 -14 15 -65 72 -115 126 -114 126 -431 441 -560
559 -54 50 -110 101 -124 114 -14 13 -82 71 -151 130 -69 58 -127 108 -130
111 -3 3 -32 27 -65 53 -185 145 -267 208 -330 252 -38 27 -72 52 -75 56 -23
29 -587 386 -765 484 -27 15 -75 41 -105 58 -30 17 -136 72 -235 122 -193 98
-360 177 -550 259 -16 7 -51 23 -76 35 -25 11 -50 21 -54 21 -4 0 -21 7 -38
15 -207 96 -1029 376 -1297 441 -8 2 -64 17 -125 33 -60 16 -119 32 -130 35
-24 6 -194 47 -215 51 -8 2 -67 15 -130 29 -100 22 -232 49 -295 62 -11 2
-108 19 -215 38 -190 34 -253 44 -315 52 -16 2 -48 6 -70 9 -64 10 -85 13
-175 25 -133 18 -141 19 -210 25 -36 4 -78 8 -95 10 -16 2 -59 6 -95 10 -36 3
-87 8 -115 10 -27 3 -84 7 -125 10 -41 2 -115 7 -165 10 -49 3 -130 8 -180 11
-97 6 -1052 14 -1057 9z"/>
</g>
</svg>
